<svg version="1.1" xmlns="http://www.w3.org/2000/svg" xmlns:xlink="http://www.w3.org/1999/xlink" width="800px" height="800px" viewBox="0,0,256,256"><g fill="none" fill-rule="nonzero" stroke="#ffffff" stroke-width="2" stroke-linecap="round" stroke-linejoin="round" stroke-miterlimit="10" stroke-dasharray="" stroke-dashoffset="0" font-family="none" font-weight="none" font-size="none" text-anchor="none" style="mix-blend-mode: normal"><g transform="translate(-0.00107,0) scale(10.66667,10.66667)"><g id="Edit / Add_To_Queue"><path d="M3,9v10.4c0,0.5601 0,0.8399 0.10899,1.0538c0.09588,0.1882 0.24875,0.3414 0.43691,0.4373c0.2137,0.1089 0.4936,0.1089 1.05256,0.1089h10.40164M14,13v-3M14,10v-3M14,10h-3M14,10h3M7,13.8002v-7.6c0,-1.12011 0,-1.68058 0.21799,-2.1084c0.19174,-0.37633 0.49748,-0.68207 0.87381,-0.87381c0.42782,-0.21799 0.98829,-0.21799 2.1084,-0.21799h7.6c1.1201,0 1.6799,0 2.1077,0.21799c0.3763,0.19174 0.6826,0.49748 0.8743,0.87381c0.218,0.42782 0.218,0.98789 0.218,2.10798v7.60002c0,1.1201 0,1.6802 -0.218,2.108c-0.1917,0.3763 -0.498,0.6827 -0.8743,0.8744c-0.4274,0.2178 -0.9864,0.2178 -2.1043,0.2178h-7.6067c-1.11791,0 -1.6777,0 -2.1051,-0.2178c-0.37633,-0.1917 -0.68207,-0.498 -0.87381,-0.8743c-0.21799,-0.4278 -0.21799,-0.9876 -0.21799,-2.1077z" id="Vector"></path></g></g></g></svg>