<svg version="1.1" xmlns="http://www.w3.org/2000/svg" xmlns:xlink="http://www.w3.org/1999/xlink" width="800px" height="800px" viewBox="0,0,256,256"><g fill="#ffffff" fill-rule="nonzero" stroke="none" stroke-width="1" stroke-linecap="butt" stroke-linejoin="miter" stroke-miterlimit="10" stroke-dasharray="" stroke-dashoffset="0" font-family="none" font-weight="none" font-size="none" text-anchor="none" style="mix-blend-mode: normal"><g transform="translate(-0.39195,0) scale(4.92308,4.92308)"><path d="M20,37.5c0,-0.8 -0.7,-1.5 -1.5,-1.5h-15c-0.8,0 -1.5,0.7 -1.5,1.5v11c0,0.8 0.7,1.5 1.5,1.5h15c0.8,0 1.5,-0.7 1.5,-1.5z"></path><path d="M8.1,22h-4.9c-1,0 -1.5,0.9 -0.9,1.4l8,8.3c0.4,0.3 1,0.3 1.4,0l8,-8.3c0.6,-0.6 0.1,-1.4 -0.9,-1.4h-4.7c0,-5 4.9,-10 9.9,-10v-6c-9,0 -15.9,7 -15.9,16z"></path><path d="M41.8,20.3c-0.4,-0.3 -1,-0.3 -1.4,0l-8,8.3c-0.6,0.6 -0.1,1.4 0.9,1.4h4.8c0,6 -4.1,10 -10.1,10v6c9,0 16.1,-7 16.1,-16h4.9c1,0 1.5,-0.9 0.9,-1.4z"></path><path d="M50,3.5c0,-0.8 -0.7,-1.5 -1.5,-1.5h-15c-0.8,0 -1.5,0.7 -1.5,1.5v11c0,0.8 0.7,1.5 1.5,1.5h15c0.8,0 1.5,-0.7 1.5,-1.5z"></path></g></g></svg>