<svg version="1.1" xmlns="http://www.w3.org/2000/svg" xmlns:xlink="http://www.w3.org/1999/xlink" width="800px" height="800px" viewBox="0,0,256,256"><g fill="none" fill-rule="nonzero" stroke="#ffffff" stroke-width="1.91" stroke-linecap="square" stroke-linejoin="miter" stroke-miterlimit="10" stroke-dasharray="" stroke-dashoffset="0" font-family="none" font-weight="none" font-size="none" text-anchor="none" style="mix-blend-mode: normal"><g transform="translate(-0.0013,0.0013) scale(10.66667,10.66667)"><g id="coins_1"><path d="M12,4.84c0,0.78 -0.83,1.48 -2.11,1.91c-1.01253,0.33417 -2.07388,0.49641 -3.14,0.48c-1.06612,0.01641 -2.12747,-0.14583 -3.14,-0.48c-1.28,-0.43 -2.11,-1.13 -2.11,-1.91c0,-1.32 2.35,-2.39 5.25,-2.39c2.9,0 5.25,1.07 5.25,2.39z"></path><path d="M12,4.84v3.82c0,0.78 -0.83,1.48 -2.11,1.91c-1.01368,0.32934 -2.07422,0.49146 -3.14,0.48c-1.06578,0.01146 -2.12632,-0.15066 -3.14,-0.48c-1.28,-0.43 -2.11,-1.13 -2.11,-1.91v-3.82c0,0.78 0.83,1.48 2.11,1.91c1.01253,0.33417 2.07388,0.49641 3.14,0.48c1.06612,0.01641 2.12747,-0.14583 3.14,-0.48c1.28,-0.43 2.11,-1.13 2.11,-1.91z"></path><path d="M12,8.66v3.82c0,0.78 -0.83,1.48 -2.11,1.91c-1.01432,0.32561 -2.07479,0.48434 -3.14,0.47c-1.06521,0.01434 -2.12568,-0.14439 -3.14,-0.47c-1.28,-0.39 -2.11,-1.13 -2.11,-1.91v-3.82c0,0.78 0.83,1.48 2.11,1.91c1.01368,0.32934 2.07422,0.49146 3.14,0.48c1.06578,0.01146 2.12632,-0.15066 3.14,-0.48c1.28,-0.43 2.11,-1.13 2.11,-1.91z"></path><path d="M12,12.48v3.82c0,1.31 -2.35,2.38 -5.25,2.38c-2.9,0 -5.25,-1.07 -5.25,-2.38v-3.82c0,0.78 0.83,1.48 2.11,1.91c1.01432,0.32561 2.07479,0.48434 3.14,0.47c1.06521,0.01434 2.12568,-0.14439 3.14,-0.47c1.28,-0.39 2.11,-1.13 2.11,-1.91z"></path><path d="M22.5,12.48v3.82c0,1.31 -2.35,2.38 -5.25,2.38c-2.9,0 -5.25,-1.07 -5.25,-2.38v-3.82c0,0.78 0.83,1.48 2.11,1.91c1.01432,0.32561 2.07479,0.48434 3.14,0.47c1.06521,0.01434 2.12568,-0.14439 3.14,-0.47c1.28,-0.39 2.11,-1.13 2.11,-1.91z"></path><path d="M12,12.48v7.63c0,1.32 -2.35,2.39 -5.25,2.39c-2.9,0 -5.25,-1.07 -5.25,-2.39v-7.63"></path><path d="M22.5,13.48v6.63c0,1.32 -2.35,2.39 -5.25,2.39c-2.9,0 -5.25,-1.07 -5.25,-2.39v-7.63"></path><path d="M22.5,6.75c0,2.89949 -2.35051,5.25 -5.25,5.25c-2.89949,0 -5.25,-2.35051 -5.25,-5.25c0,-2.89949 2.35051,-5.25 5.25,-5.25c1.39648,-0.01349 2.73969,0.5353 3.7272,1.5228c0.98751,0.98751 1.5363,2.33072 1.5228,3.7272z"></path><path d="M22.5,12.48c0,0.78 -0.83,1.48 -2.11,1.91c-1.01432,0.32561 -2.07479,0.48434 -3.14,0.47c-1.06521,0.01434 -2.12568,-0.14439 -3.14,-0.47c-1.28,-0.39 -2.11,-1.13 -2.11,-1.91c0,-0.78 0.69,-1.36 1.78,-1.8c1.97842,1.76043 4.96158,1.76043 6.94,0c1.09,0.44 1.78,1.08 1.78,1.8z"></path></g></g></g></svg>