<svg version="1.1" xmlns="http://www.w3.org/2000/svg" xmlns:xlink="http://www.w3.org/1999/xlink" width="800px" height="800px" viewBox="0,0,256,256"><g fill="#ffffff" fill-rule="nonzero" stroke="none" stroke-width="1" stroke-linecap="butt" stroke-linejoin="miter" stroke-miterlimit="10" stroke-dasharray="" stroke-dashoffset="0" font-family="none" font-weight="none" font-size="none" text-anchor="none" style="mix-blend-mode: normal"><g transform="scale(0.5,0.5)"><g><g><path d="M153.6,0c-42.351,0 -76.8,34.449 -76.8,76.8c0,42.351 34.449,76.8 76.8,76.8c42.351,0 76.8,-34.449 76.8,-76.8c0,-42.351 -34.449,-76.8 -76.8,-76.8zM153.6,128c-28.279,0 -51.2,-22.921 -51.2,-51.2c0,-28.279 22.921,-51.2 51.2,-51.2c28.279,0 51.2,22.921 51.2,51.2c0,28.279 -22.921,51.2 -51.2,51.2z"></path></g></g><g><g><path d="M153.6,384h-64c-7.049,0 -12.8,-5.751 -12.8,-12.8v-115.2c0,-7.074 -5.726,-12.8 -12.8,-12.8c-7.074,0 -12.8,5.726 -12.8,12.8v115.2c0,21.171 17.229,38.4 38.4,38.4h12.8v76.8h-12.8c-7.074,0 -12.8,5.726 -12.8,12.8c0,7.074 5.726,12.8 12.8,12.8h51.2c7.074,0 12.8,-5.726 12.8,-12.8c0,-7.074 -5.726,-12.8 -12.8,-12.8h-12.8v-76.8h25.6c10.3,0 12.646,7.023 12.8,12.928c0.077,6.997 5.777,12.672 12.8,12.672c7.074,0 12.8,-5.726 12.8,-12.8c0,-15.428 -10.223,-38.4 -38.4,-38.4z"></path></g></g><g><g><path d="M448,256h-217.6c-7.074,0 -12.8,5.726 -12.8,12.8c0,7.074 5.726,12.8 12.8,12.8h12.8v19.951l-38.4,-12.8v-58.351c0,-28.228 -22.972,-51.2 -51.2,-51.2c-28.228,0 -51.2,22.972 -51.2,51.2v102.4c0,11.75 7.996,21.99 19.388,24.832l86.682,21.675l22.426,112.119c2.397,11.964 12.901,20.574 25.104,20.574h179.2v-230.4h12.8c7.074,0 12.8,-5.726 12.8,-12.8c0,-7.074 -5.726,-12.8 -12.8,-12.8zM243.2,422.4l-12.8,-64l-102.4,-25.6v-102.4c0,-14.14 11.46,-25.6 25.6,-25.6c14.14,0 25.6,11.46 25.6,25.6v76.8l64,21.333zM409.6,486.4h-140.8v-204.8h140.8z"></path></g></g><g><g><path d="M399.898,102.775c-6.972,-1.672 -13.824,2.449 -15.522,9.327l-23.177,92.698h-92.399c-7.074,0 -12.8,5.726 -12.8,12.8c0,7.074 5.726,12.8 12.8,12.8h102.4c5.871,0 11,-4.002 12.425,-9.702l25.6,-102.4c1.698,-6.853 -2.45,-13.799 -9.327,-15.523z"></path></g></g></g></g></svg>