<svg version="1.1" xmlns="http://www.w3.org/2000/svg" xmlns:xlink="http://www.w3.org/1999/xlink" width="800px" height="800px" viewBox="0,0,256,256"><g fill="none" fill-rule="nonzero" stroke="#ffffff" stroke-width="1.5" stroke-linecap="round" stroke-linejoin="miter" stroke-miterlimit="10" stroke-dasharray="" stroke-dashoffset="0" font-family="none" font-weight="none" font-size="none" text-anchor="none" style="mix-blend-mode: normal"><g transform="translate(0,0.00008) scale(10.66667,10.66667)"><path d="M9,4.5h-1c-2.35702,0 -3.53553,0 -4.26777,0.73223c-0.73223,0.73224 -0.73223,1.91075 -0.73223,4.26777v0.5M9,19.5h-1c-2.35702,0 -3.53553,0 -4.26777,-0.7322c-0.73223,-0.7323 -0.73223,-1.9108 -0.73223,-4.2678v-0.5"></path><path d="M13.6576,2.34736c-2.1621,-0.3771 -3.2431,-0.56565 -3.95035,0.06134c-0.70725,0.62699 -0.70725,1.77389 -0.70725,4.0677v11.0472c0,2.2938 0,3.4407 0.70725,4.0677c0.70725,0.627 1.78825,0.4384 3.95035,0.0613l2.3288,-0.4061c2.3945,-0.4177 3.5917,-0.6265 4.3027,-1.5048c0.7109,-0.8782 0.7109,-2.1484 0.7109,-4.6888v-6.10579c0,-2.54039 0,-3.81059 -0.7109,-4.68885c-0.4751,-0.58693 -1.1674,-0.87488 -2.2891,-1.12598"></path><path d="M12,11v2"></path></g></g></svg>