<svg version="1.1" xmlns="http://www.w3.org/2000/svg" xmlns:xlink="http://www.w3.org/1999/xlink" width="800px" height="800px" viewBox="0,0,256,256"><g fill="none" fill-rule="nonzero" stroke="#ffffff" stroke-width="2" stroke-linecap="round" stroke-linejoin="round" stroke-miterlimit="10" stroke-dasharray="" stroke-dashoffset="0" font-family="none" font-weight="none" font-size="none" text-anchor="none" style="mix-blend-mode: normal"><g transform="translate(0.00837,0) scale(10.66667,10.66667)"><path d="M2.99902,3l17.99998,18M9.8433,9.91364c-0.52264,0.53996 -0.84428,1.27556 -0.84428,2.08636c0,1.6569 1.34318,3 2.99998,3c0.8225,0 1.5677,-0.331 2.1096,-0.867M6.49902,6.64715c-1.8993,1.25319 -3.34597,3.13679 -4.04199,5.35285c1.27425,4.0571 5.06456,7 9.54217,7c1.9889,0 3.8422,-0.5806 5.3996,-1.5816M10.999,5.04939c0.329,-0.03266 0.6627,-0.04939 1.0002,-0.04939c4.4777,0 8.268,2.94291 9.5422,7c-0.2807,0.894 -0.6837,1.7338 -1.1892,2.5"></path></g></g></svg>