<svg version="1.1" xmlns="http://www.w3.org/2000/svg" xmlns:xlink="http://www.w3.org/1999/xlink" width="800px" height="800px" viewBox="0,0,256,256"><g fill="none" fill-rule="nonzero" stroke="#ffffff" stroke-width="1.5" stroke-linecap="none" stroke-linejoin="none" stroke-miterlimit="10" stroke-dasharray="" stroke-dashoffset="0" font-family="none" font-weight="none" font-size="none" text-anchor="none" style="mix-blend-mode: normal"><g transform="translate(0,-5.33333) scale(10.66667,10.66667)"><path d="M22,22h-20" stroke-linecap="round" stroke-linejoin="miter"></path><path d="M2,11l4.06296,-3.25032M22,11l-8.1259,-6.50069c-1.0957,-0.87652 -2.6525,-0.87652 -3.7482,0l-0.78192,0.62555" stroke-linecap="round" stroke-linejoin="miter"></path><path d="M15.5,5.5v-2c0,-0.27614 0.2239,-0.5 0.5,-0.5h2.5c0.2761,0 0.5,0.22386 0.5,0.5v5" stroke-linecap="round" stroke-linejoin="miter"></path><path d="M4,22v-12.5" stroke-linecap="round" stroke-linejoin="miter"></path><path d="M20,9.5v4M20,22v-4.5" stroke-linecap="round" stroke-linejoin="miter"></path><path d="M15,22v-5c0,-1.4142 0,-2.1213 -0.4393,-2.5607c-0.4394,-0.4393 -1.1465,-0.4393 -2.5607,-0.4393c-1.4142,0 -2.12132,0 -2.56066,0.4393M9,22v-5" stroke-linecap="round" stroke-linejoin="round"></path><path d="M14,9.5c0,1.1046 -0.8954,2 -2,2c-1.1046,0 -2,-0.8954 -2,-2c0,-1.10457 0.8954,-2 2,-2c1.1046,0 2,0.89543 2,2z" stroke-linecap="butt" stroke-linejoin="miter"></path></g></g></svg>