<svg version="1.1" xmlns="http://www.w3.org/2000/svg" xmlns:xlink="http://www.w3.org/1999/xlink" width="800px" height="800px" viewBox="0,0,256,256"><g fill="#ffffff" fill-rule="nonzero" stroke="none" stroke-width="1" stroke-linecap="butt" stroke-linejoin="miter" stroke-miterlimit="10" stroke-dasharray="" stroke-dashoffset="0" font-family="none" font-weight="none" font-size="none" text-anchor="none" style="mix-blend-mode: normal"><g transform="translate(0,0) scale(2.66667,2.66667)"><g><path d="M90,0h-60c-1.59158,-0.0009 -3.11822,0.63095 -4.24364,1.75636c-1.12541,1.12541 -1.75727,2.65206 -1.75636,4.24364v18h-18c-1.59158,-0.0009 -3.11822,0.63095 -4.24364,1.75636c-1.12541,1.12541 -1.75727,2.65206 -1.75636,4.24364v48c0.01102,9.93656 8.06344,17.98898 18,18h60c9.93656,-0.01102 17.98898,-8.06344 18,-18v-72c0.0009,-1.59158 -0.63095,-3.11822 -1.75636,-4.24364c-1.12541,-1.12541 -2.65206,-1.75727 -4.24364,-1.75636zM12,36h12v42c0,3.31371 -2.68629,6 -6,6c-3.31371,0 -6,-2.68629 -6,-6zM84,78c-0.00638,3.31106 -2.68894,5.99362 -6,6h-43.1052c0.71112,-1.92145 1.08501,-3.95128 1.1052,-6v-66h48z"></path><path d="M54,36h12c3.31371,0 6,-2.68629 6,-6c0,-3.31371 -2.68629,-6 -6,-6h-12c-3.31371,0 -6,2.68629 -6,6c0,3.31371 2.68629,6 6,6z"></path><path d="M66,48h-12c-3.31371,0 -6,2.68629 -6,6c0,3.31371 2.68629,6 6,6h12c3.31371,0 6,-2.68629 6,-6c0,-3.31371 -2.68629,-6 -6,-6z"></path></g></g></g></svg>