<svg version="1.1" xmlns="http://www.w3.org/2000/svg" xmlns:xlink="http://www.w3.org/1999/xlink" width="800px" height="800px" viewBox="0,0,256,256"><g fill="none" fill-rule="nonzero" stroke="#ffffff" stroke-width="2" stroke-linecap="round" stroke-linejoin="round" stroke-miterlimit="10" stroke-dasharray="" stroke-dashoffset="0" font-family="none" font-weight="none" font-size="none" text-anchor="none" style="mix-blend-mode: normal"><g transform="scale(10.66667,10.66667)"><path d="M12,14.5v2M7,10.0288c0.47142,-0.0288 1.05259,-0.0288 1.8,-0.0288h6.4c0.7474,0 1.3286,0 1.8,0.0288M7,10.0288c-0.58832,0.0359 -1.00571,0.1167 -1.36197,0.2982c-0.56449,0.2876 -1.02343,0.7465 -1.31105,1.311c-0.32698,0.6418 -0.32698,1.4818 -0.32698,3.162v1.4c0,1.6802 0,2.5202 0.32698,3.162c0.28762,0.5645 0.74656,1.0234 1.31105,1.311c0.64173,0.327 1.48181,0.327 3.16197,0.327h6.4c1.6802,0 2.5202,0 3.162,-0.327c0.5645,-0.2876 1.0234,-0.7465 1.311,-1.311c0.327,-0.6418 0.327,-1.4818 0.327,-3.162v-1.4c0,-1.6802 0,-2.5202 -0.327,-3.162c-0.2876,-0.5645 -0.7465,-1.0234 -1.311,-1.311c-0.3563,-0.1815 -0.7737,-0.2623 -1.362,-0.2982M7,10.0288v-2.0288c0,-2.76142 2.23858,-5 5,-5c2.7614,0 5,2.23858 5,5v2.0288"></path></g></g></svg>