<svg version="1.1" xmlns="http://www.w3.org/2000/svg" xmlns:xlink="http://www.w3.org/1999/xlink" width="800px" height="800px" viewBox="0,0,256,256"><g fill="#ffffff" fill-rule="nonzero" stroke="none" stroke-width="1" stroke-linecap="butt" stroke-linejoin="miter" stroke-miterlimit="10" stroke-dasharray="" stroke-dashoffset="0" font-family="none" font-weight="none" font-size="none" text-anchor="none" style="mix-blend-mode: normal"><g transform="translate(0,-0.06659) scale(8,8)"><path d="M31,7h-30c-0.55228,0 -1,0.44772 -1,1v16c0,0.55228 0.44772,1 1,1h30c0.55228,0 1,-0.44772 1,-1v-16c0,-0.55228 -0.44772,-1 -1,-1zM25.09,23h-18.18c-0.42716,-2.51367 -2.39633,-4.48284 -4.91,-4.91v-4.18c2.51367,-0.42716 4.48284,-2.39633 4.91,-4.91h18.18c0.42716,2.51367 2.39633,4.48284 4.91,4.91v4.18c-2.51367,0.42716 -4.48284,2.39633 -4.91,4.91zM30,11.86c-1.4006,-0.36561 -2.49439,-1.4594 -2.86,-2.86h2.86zM4.86,9c-0.36561,1.4006 -1.4594,2.49439 -2.86,2.86v-2.86zM2,20.14c1.4006,0.36561 2.49439,1.4594 2.86,2.86h-2.86zM27.14,23c0.36561,-1.4006 1.4594,-2.49439 2.86,-2.86v2.86z"></path><path d="M7.51,0.71c-0.22999,-0.13296 -0.50344,-0.16894 -0.76,-0.1c-0.2562,0.06655 -0.47556,0.23198 -0.61,0.46l-2,3.43c-0.27614,0.48049 -0.11049,1.09386 0.37,1.37c0.48049,0.27614 1.09386,0.11049 1.37,-0.37l1.5,-2.56l5.07,2.93c0.48049,0.27614 1.09386,0.11049 1.37,-0.37c0.27614,-0.48049 0.11049,-1.09386 -0.37,-1.37z"></path><path d="M24.49,31.29c0.15143,0.08988 0.32391,0.13817 0.5,0.14c0.08606,0.01455 0.17394,0.01455 0.26,0c0.2562,-0.06655 0.47556,-0.23198 0.61,-0.46l2,-3.43c0.27614,-0.48049 0.11049,-1.09386 -0.37,-1.37c-0.48049,-0.27614 -1.09386,-0.11049 -1.37,0.37l-1.48,2.56l-5.07,-2.93c-0.48049,-0.27614 -1.09386,-0.11049 -1.37,0.37c-0.27614,0.48049 -0.11049,1.09386 0.37,1.37z"></path><path d="M16,10c-3.31371,0 -6,2.68629 -6,6c0,3.31371 2.68629,6 6,6c3.31371,0 6,-2.68629 6,-6c0,-3.31371 -2.68629,-6 -6,-6zM16,20c-2.20914,0 -4,-1.79086 -4,-4c0,-2.20914 1.79086,-4 4,-4c2.20914,0 4,1.79086 4,4c0,2.20914 -1.79086,4 -4,4z"></path></g></g></svg>