<svg version="1.1" xmlns="http://www.w3.org/2000/svg" xmlns:xlink="http://www.w3.org/1999/xlink" width="800px" height="800px" viewBox="0,0,256,256"><g fill="none" fill-rule="nonzero" stroke="#ffffff" stroke-width="2" stroke-linecap="round" stroke-linejoin="round" stroke-miterlimit="10" stroke-dasharray="" stroke-dashoffset="0" font-family="none" font-weight="none" font-size="none" text-anchor="none" style="mix-blend-mode: normal"><g transform="translate(0.00013,0) scale(10.66667,10.66667)"><path d="M13.5295,8.35186c-0.5724,0.40809 -1.2729,0.64814 -2.0295,0.64814c-1.933,0 -3.5,-1.567 -3.5,-3.5c0,-1.933 1.567,-3.5 3.5,-3.5c1.253,0 2.3522,0.65842 2.9705,1.64814M6,20.0872h2.61029c0.34034,0 0.67859,0.0405 1.00852,0.1214l2.75809,0.6703c0.5984,0.1458 1.2219,0.1599 1.8266,0.0425l3.0495,-0.5933c0.8055,-0.1569 1.5466,-0.5427 2.1273,-1.1076l2.1576,-2.0988c0.6161,-0.5983 0.6161,-1.5693 0,-2.1686c-0.5547,-0.5397 -1.4332,-0.6004 -2.0608,-0.1428l-2.5145,1.8346c-0.3601,0.2632 -0.7983,0.4049 -1.2489,0.4049h-2.4282h1.5456c0.8711,0 1.5768,-0.6865 1.5768,-1.5339v-0.3068c0,-0.7036 -0.4923,-1.3171 -1.1938,-1.4872l-2.3855,-0.5802c-0.3882,-0.0941 -0.7858,-0.1417 -1.1855,-0.1417c-0.9648,0 -2.71121,0.7988 -2.71121,0.7988l-2.93189,1.2261M20,6.5c0,1.933 -1.567,3.5 -3.5,3.5c-1.933,0 -3.5,-1.567 -3.5,-3.5c0,-1.933 1.567,-3.5 3.5,-3.5c1.933,0 3.5,1.567 3.5,3.5zM2,14.6v5.8c0,0.5601 0,0.8401 0.10899,1.054c0.09588,0.1882 0.24886,0.3411 0.43702,0.437c0.21391,0.109 0.49394,0.109 1.05399,0.109h0.8c0.56005,0 0.84008,0 1.05399,-0.109c0.18816,-0.0959 0.34114,-0.2488 0.43702,-0.437c0.10899,-0.2139 0.10899,-0.4939 0.10899,-1.054v-5.8c0,-0.5601 0,-0.8401 -0.10899,-1.054c-0.09588,-0.1882 -0.24886,-0.3411 -0.43702,-0.437c-0.21391,-0.109 -0.49394,-0.109 -1.05399,-0.109h-0.8c-0.56005,0 -0.84008,0 -1.05399,0.109c-0.18816,0.0959 -0.34114,0.2488 -0.43702,0.437c-0.10899,0.2139 -0.10899,0.4939 -0.10899,1.054z"></path></g></g></svg>