<svg version="1.1" xmlns="http://www.w3.org/2000/svg" xmlns:xlink="http://www.w3.org/1999/xlink" width="800px" height="800px" viewBox="0,0,256,256"><g fill="#ffffff" fill-rule="evenodd" stroke="none" stroke-width="1" stroke-linecap="butt" stroke-linejoin="miter" stroke-miterlimit="10" stroke-dasharray="" stroke-dashoffset="0" font-family="none" font-weight="none" font-size="none" text-anchor="none" style="mix-blend-mode: normal"><g transform="translate(0,-4) scale(10.66667,10.66667)"><path d="M3,18c0,-2.6055 1.66081,-4.8232 3.98156,-5.652c0.63076,-0.2253 1.31027,-0.348 2.01844,-0.348c0.70817,0 1.3877,0.1227 2.0184,0.348c0.3427,0.1223 0.6709,0.275 0.9816,0.4547c0.3107,-0.1797 0.6389,-0.3324 0.9816,-0.4547c0.6307,-0.2253 1.3102,-0.348 2.0184,-0.348c0.7082,0 1.3877,0.1227 2.0184,0.348c2.3208,0.8288 3.9816,3.0465 3.9816,5.652v3h-5.25v-1.5h3.75v-1.5c0,-2.4853 -2.0147,-4.5 -4.5,-4.5c-0.5971,0 -1.167,0.1163 -1.6884,0.3275c1.0452,1.0798 1.6884,2.551 1.6884,4.1725v3h-12zM9,11.25c-0.68896,0 -1.33452,-0.1858 -1.88932,-0.51c-1.11298,-0.6504 -1.86068,-1.85789 -1.86068,-3.24c0,-2.07107 1.67893,-3.75 3.75,-3.75c1.2267,0 2.3158,0.58901 3,1.49963c0.6842,-0.91062 1.7733,-1.49963 3,-1.49963c2.0711,0 3.75,1.67893 3.75,3.75c0,1.38211 -0.7477,2.5896 -1.8607,3.24c-0.5548,0.3242 -1.2003,0.51 -1.8893,0.51c-0.689,0 -1.3345,-0.1858 -1.8893,-0.51c-0.4331,-0.2531 -0.8108,-0.5905 -1.1107,-0.98964c-0.2999,0.39924 -0.6776,0.73654 -1.1107,0.98964c-0.5548,0.3242 -1.20034,0.51 -1.8893,0.51zM13.5,18v1.5h-9v-1.5c0,-2.4853 2.01472,-4.5 4.5,-4.5c2.4853,0 4.5,2.0147 4.5,4.5zM11.25,7.5c0,1.24264 -1.0074,2.25 -2.25,2.25c-1.24264,0 -2.25,-1.00736 -2.25,-2.25c0,-1.24264 1.00736,-2.25 2.25,-2.25c1.2426,0 2.25,1.00736 2.25,2.25zM15,5.25c-1.2426,0 -2.25,1.00736 -2.25,2.25c0,1.24264 1.0074,2.25 2.25,2.25c1.2426,0 2.25,-1.00736 2.25,-2.25c0,-1.24264 -1.0074,-2.25 -2.25,-2.25z"></path></g></g></svg>