<svg version="1.1" xmlns="http://www.w3.org/2000/svg" xmlns:xlink="http://www.w3.org/1999/xlink" width="800px" height="800px" viewBox="0,0,256,256"><g fill="none" fill-rule="nonzero" stroke="#ffffff" stroke-width="2" stroke-linecap="round" stroke-linejoin="round" stroke-miterlimit="10" stroke-dasharray="" stroke-dashoffset="0" font-family="none" font-weight="none" font-size="none" text-anchor="none" style="mix-blend-mode: normal"><g transform="scale(10.66667,10.66667)"><path d="M3,5.5c0,8.5604 6.93959,15.5 15.5,15.5c0.3862,0 0.7691,-0.0141 1.1483,-0.0419c0.4351,-0.0319 0.6526,-0.0478 0.8507,-0.1618c0.164,-0.0944 0.3195,-0.2618 0.4017,-0.4323c0.0993,-0.2058 0.0993,-0.4459 0.0993,-0.926v-2.8173c0,-0.4038 0,-0.6057 -0.0665,-0.7787c-0.0586,-0.1529 -0.154,-0.289 -0.2776,-0.3964c-0.1399,-0.1216 -0.3297,-0.1906 -0.7091,-0.3286l-3.2068,-1.1661c-0.4415,-0.1605 -0.6623,-0.2408 -0.8717,-0.2272c-0.1847,0.012 -0.3624,0.0751 -0.5134,0.1821c-0.1712,0.1213 -0.292,0.3227 -0.5337,0.7256l-0.8212,1.3686c-2.6499,-1.2001 -4.7981,-3.3511 -6,-6l1.36863,-0.82118c0.40282,-0.24169 0.60423,-0.36254 0.72557,-0.53376c0.107,-0.15098 0.1701,-0.32869 0.1821,-0.51336c0.0136,-0.20943 -0.0667,-0.43017 -0.2272,-0.87165l-1.16611,-3.20684c-0.13799,-0.37945 -0.20698,-0.56918 -0.32857,-0.70911c-0.10741,-0.12361 -0.24353,-0.21895 -0.3964,-0.27765c-0.17306,-0.06645 -0.37494,-0.06645 -0.7787,-0.06645h-2.81731c-0.48013,0 -0.7202,0 -0.92603,0.09925c-0.17048,0.08221 -0.33784,0.23776 -0.43228,0.40178c-0.11402,0.19804 -0.12995,0.41559 -0.16181,0.8507c-0.02776,0.37913 -0.04189,0.76205 -0.04189,1.14827z"></path></g></g></svg>