<svg version="1.1" xmlns="http://www.w3.org/2000/svg" xmlns:xlink="http://www.w3.org/1999/xlink" width="800px" height="800px" viewBox="0,0,256,256"><g fill="#ffffff" fill-rule="nonzero" stroke="none" stroke-width="1" stroke-linecap="butt" stroke-linejoin="miter" stroke-miterlimit="10" stroke-dasharray="" stroke-dashoffset="0" font-family="none" font-weight="none" font-size="none" text-anchor="none" style="mix-blend-mode: normal"><g transform="scale(4.57143,4.57143)"><path d="M27.9999,51.9063c13.0547,0 23.9064,-10.8282 23.9064,-23.9063c0,-13.0547 -10.8751,-23.9063 -23.9298,-23.9063c-13.0782,0 -23.8828,10.8516 -23.8828,23.9063c0,13.0781 10.8281,23.9063 23.9062,23.9063zM27.9999,47.9219c-11.0625,0 -19.8985,-8.8594 -19.8985,-19.9219c0,-11.0391 8.8126,-19.9219 19.8751,-19.9219c11.039,0 19.9218,8.8828 19.9454,19.9219c0.0235,11.0625 -8.8829,19.9219 -19.922,19.9219zM21.953,39.4375c0.9141,0 1.4766,-0.4453 1.6641,-1.3359l1.0547,-5.0157h4.3594l-0.961,4.5938c-0.2109,0.9609 0.4688,1.7578 1.4297,1.7578c0.9375,0 1.5469,-0.4453 1.7344,-1.3359l1.0547,-5.0391h2.4375c0.914,0 1.5703,-0.6797 1.5703,-1.5937c0,-0.7969 -0.5625,-1.3829 -1.3359,-1.3829h-2.0391l1.0078,-4.7343h2.4609c0.9141,0 1.5704,-0.6797 1.5704,-1.5938c0,-0.7969 -0.5626,-1.3828 -1.336,-1.3828h-2.0859l0.914,-4.3594c0.1875,-0.9609 -0.5156,-1.7812 -1.4765,-1.7812c-0.9141,0 -1.5,0.4687 -1.6875,1.3359l-1.0078,4.8047h-4.3594l0.8906,-4.3594c0.211,-0.9375 -0.4453,-1.7812 -1.4297,-1.7812c-0.9375,0 -1.5234,0.4687 -1.7109,1.3359l-0.9844,4.8047h-2.4844c-0.8906,0 -1.5703,0.7031 -1.5703,1.5938c0,0.7968 0.5625,1.3828 1.3594,1.3828h2.0391l-0.9844,4.7343h-2.5078c-0.9141,0 -1.5703,0.7031 -1.5703,1.5938c0,0.7969 0.5625,1.3828 1.3593,1.3828h2.1094l-0.9609,4.6172c-0.1875,0.9609 0.5156,1.7578 1.4765,1.7578zM25.0936,30.3672l1.0782,-5.25h4.7344l-1.1016,5.25z"></path></g></g></svg>