<svg version="1.1" xmlns="http://www.w3.org/2000/svg" xmlns:xlink="http://www.w3.org/1999/xlink" width="800px" height="800px" viewBox="0,0,256,256"><g fill="#ffffff" fill-rule="none" stroke="none" stroke-width="1" stroke-linecap="butt" stroke-linejoin="miter" stroke-miterlimit="10" stroke-dasharray="" stroke-dashoffset="0" font-family="none" font-weight="none" font-size="none" text-anchor="none" style="mix-blend-mode: normal"><g transform="translate(0,0.18304) scale(2.56,2.56)"><path d="M21,32c-11.541,0 -21,9.43 -21,20.94c0,4.46 1.424,8.605 3.835,12.012l14.603,25.244c2.045,2.672 3.405,2.165 5.106,-0.14l16.106,-27.41c0.325,-0.59 0.58,-1.216 0.803,-1.856c1.02206,-2.49092 1.54757,-5.15755 1.547,-7.85c0,-11.51 -9.456,-20.94 -21,-20.94zM21,41.812c6.216,0 11.16,4.931 11.16,11.129c0,6.198 -4.944,11.127 -11.16,11.127c-6.215,0 -11.16,-4.93 -11.16,-11.127c0,-6.198 4.945,-11.129 11.16,-11.129z" fill-rule="nonzero"></path><path d="M87.75,0c-6.732,0 -12.25,5.501 -12.25,12.216c0,2.601 0.83,5.019 2.237,7.006l8.519,14.726c1.193,1.558 1.986,1.262 2.978,-0.082l9.395,-15.99c0.19,-0.343 0.339,-0.708 0.468,-1.082c0.59641,-1.45259 0.90316,-3.00774 0.903,-4.578c0,-6.716 -5.516,-12.216 -12.25,-12.216zM87.75,5.724c3.626,0 6.51,2.876 6.51,6.492c0,3.615 -2.884,6.49 -6.51,6.49c-3.625,0 -6.51,-2.875 -6.51,-6.49c0,-3.616 2.885,-6.492 6.51,-6.492z" fill-rule="nonzero"></path><path d="M88.209,37.412c-2.247,0.05 -4.5,0.145 -6.757,0.312l0.348,5.532c2.16803,-0.15702 4.33975,-0.25805 6.513,-0.303zM76.234,38.232c-3.47,0.431 -6.97,1.045 -10.43,2.032l1.303,5.361c3.144,-0.896 6.402,-1.475 9.711,-1.886zM60.623,42.12c-1.03671,0.45762 -2.04045,0.98655 -3.004,1.583l-0.004,0.005l-0.006,0.002c-1.375,0.866 -2.824,1.965 -4.007,3.562c-0.857,1.157 -1.558,2.62 -1.722,4.35l5.095,0.565c0.038,-0.406 0.246,-0.942 0.62,-1.446h0.002v-0.002c0.603,-0.816 1.507,-1.557 2.582,-2.235l0.004,-0.002c0.76627,-0.47291 1.56415,-0.89257 2.388,-1.256zM58,54.655l-3.303,4.235c0.783,0.716 1.604,1.266 2.397,1.726l0.01,0.005l0.01,0.006c2.632,1.497 5.346,2.342 7.862,3.144l1.446,-5.318c-2.515,-0.802 -4.886,-1.576 -6.918,-2.73c-0.582,-0.338 -1.092,-0.691 -1.504,-1.068zM71.335,59.949l-1.412,5.327l0.668,0.208l0.82,0.262c2.714,0.883 5.314,1.826 7.638,3.131l2.358,-4.92c-2.81,-1.579 -5.727,-2.611 -8.538,-3.525l-0.008,-0.002l-0.842,-0.269zM86.202,67.649l-3.623,3.92c0.856,0.927 1.497,2.042 1.809,3.194l0.002,0.006l0.002,0.009c0.372,1.345 0.373,2.927 0.082,4.525l5.024,1.072c0.41,-2.256 0.476,-4.733 -0.198,-7.178c-0.587,-2.162 -1.707,-4.04 -3.098,-5.548zM82.72,82.643c-0.55363,0.58473 -1.16546,1.11146 -1.826,1.572h-0.002c-1.8,1.266 -3.888,2.22 -6.106,3.04l1.654,5.244c2.426,-0.897 4.917,-1.997 7.245,-3.635l0.006,-0.005l0.003,-0.002c0.95606,-0.66944 1.84042,-1.43584 2.639,-2.287zM70.08,88.732c-3.213,0.864 -6.497,1.522 -9.821,2.08l0.784,5.479c3.421,-0.575 6.856,-1.262 10.27,-2.18zM55.258,91.568c-3.346,0.457 -6.71,0.83 -10.084,1.148l0.442,5.522c3.426,-0.322 6.858,-0.701 10.285,-1.17zM40.103,93.151c-3.381,0.268 -6.77,0.486 -10.162,0.67l0.256,5.536c3.425,-0.185 6.853,-0.406 10.28,-0.678zM24.844,94.071c-2.033,0.095 -4.071,0.173 -6.114,0.245l0.168,5.541c2.05577,-0.07068 4.11113,-0.15268 6.166,-0.246z" fill-rule="evenodd"></path></g></g></svg>