<svg version="1.1" xmlns="http://www.w3.org/2000/svg" xmlns:xlink="http://www.w3.org/1999/xlink" width="800px" height="800px" viewBox="0,0,256,256"><g fill="none" fill-rule="nonzero" stroke="#ffffff" stroke-width="2" stroke-linecap="round" stroke-linejoin="round" stroke-miterlimit="10" stroke-dasharray="" stroke-dashoffset="0" font-family="none" font-weight="none" font-size="none" text-anchor="none" style="mix-blend-mode: normal"><g transform="translate(0.22356,-0.21794) scale(10.66667,10.66667)"><path d="M10.3009,13.6949l9.8011,-9.79748M10.5795,14.1355l2.2224,4.4449c0.5371,1.0741 0.8056,1.6112 1.1439,1.7552c0.2936,0.125 0.6292,0.1023 0.9034,-0.0609c0.3159,-0.1881 0.5099,-0.7564 0.898,-1.8929l4.1991,-12.29746c0.3382,-0.99025 0.5072,-1.48538 0.3915,-1.81292c-0.1007,-0.28494 -0.3248,-0.50908 -0.6097,-0.60975c-0.3276,-0.11572 -0.8227,0.05335 -1.813,0.39148l-12.29747,4.19915c-1.13649,0.38807 -1.70474,0.58211 -1.89285,0.89802c-0.16325,0.27415 -0.18587,0.60975 -0.06089,0.90328c0.14402,0.3383 0.68109,0.6069 1.75523,1.1439l4.44485,2.2225c0.17703,0.0885 0.26553,0.1327 0.34213,0.1918c0.0681,0.0525 0.1291,0.1135 0.1815,0.1815c0.0592,0.0767 0.1034,0.1652 0.1919,0.3422z"></path></g></g></svg>