<svg version="1.1" xmlns="http://www.w3.org/2000/svg" xmlns:xlink="http://www.w3.org/1999/xlink" width="800px" height="800px" viewBox="0,0,256,256"><g fill="#ffffff" fill-rule="nonzero" stroke="none" stroke-width="1" stroke-linecap="butt" stroke-linejoin="miter" stroke-miterlimit="10" stroke-dasharray="" stroke-dashoffset="0" font-family="none" font-weight="none" font-size="none" text-anchor="none" style="mix-blend-mode: normal"><g transform="scale(0.51613,0.51613)"><g><g><g><path d="M372.12,121.144l-44.12,-26.472l-44.12,26.472l8.24,13.712l27.88,-16.728v121.872h-80v80h-80v80h-80v80h-80v16h96v-80h80v-80h80v-80h80v-137.872l27.88,16.728z"></path><path d="M460.864,87.512c19.744,-2.44 35.136,-19.12 35.136,-39.512v-48h-32h-8h-64h-8h-32v48c0,20.392 15.392,37.072 35.136,39.512c5.064,11.992 15.824,21.024 28.864,23.68v48.808h-64v16h144v-16h-64v-48.808c13.048,-2.664 23.8,-11.688 28.864,-23.68zM464,16h16v32c0,10.416 -6.712,19.216 -16,22.528zM384,70.528c-9.296,-3.312 -16,-12.112 -16,-22.528v-32h16zM424,96c-13.232,0 -24,-10.768 -24,-24v-56h48v56c0,13.232 -10.768,24 -24,24z"></path><path d="M112,496h64v-64h-64zM128,448h32v32h-32z"></path><path d="M192,496h64v-144h-64zM208,368h32v112h-32z"></path><path d="M272,496h64v-224h-64zM288,288h32v192h-32z"></path><path d="M352,496h64v-304h-64zM368,208h32v272h-32z"></path><path d="M432,496h64v-304h-64zM448,208h32v272h-32z"></path><path d="M32,264c17.648,0 32,-14.352 32,-32c0,-10.728 -5.352,-20.184 -13.472,-25.992l39.28,-65.472c4.296,2.144 9.072,3.464 14.192,3.464c6.408,0 12.36,-1.936 17.368,-5.192l42.464,30.328c-2.368,4.464 -3.832,9.472 -3.832,14.864c0,17.648 14.352,32 32,32c17.648,0 32,-14.352 32,-32c0,-9.48 -4.216,-17.912 -10.784,-23.776l51.76,-97.056c2.272,0.512 4.608,0.832 7.024,0.832c17.648,0 32,-14.352 32,-32c0,-17.648 -14.352,-32 -32,-32c-17.648,0 -32,14.352 -32,32c0,9.48 4.216,17.912 10.784,23.776l-51.76,97.056c-2.272,-0.512 -4.608,-0.832 -7.024,-0.832c-6.408,0 -12.36,1.936 -17.368,5.192l-42.464,-30.328c2.368,-4.464 3.832,-9.472 3.832,-14.864c0,-17.648 -14.352,-32 -32,-32c-17.648,0 -32,14.352 -32,32c0,6.64 2.04,12.808 5.512,17.928l-42.24,70.4c-1.088,-0.112 -2.152,-0.328 -3.272,-0.328c-17.648,0 -32,14.352 -32,32c0,17.648 14.352,32 32,32zM272,16c8.816,0 16,7.184 16,16c0,8.816 -7.184,16 -16,16c-8.824,0 -16,-7.184 -16,-16c0,-8.816 7.176,-16 16,-16zM192,168c8.816,0 16,7.176 16,16c0,8.824 -7.184,16 -16,16c-8.824,0 -16,-7.176 -16,-16c0,-8.824 7.176,-16 16,-16zM104,96c8.816,0 16,7.184 16,16c0,8.816 -7.184,16 -16,16c-8.824,0 -16,-7.176 -16,-16c0,-8.824 7.176,-16 16,-16zM32,216c8.816,0 16,7.176 16,16c0,8.824 -7.184,16 -16,16c-8.824,0 -16,-7.176 -16,-16c0,-8.824 7.176,-16 16,-16z"></path></g></g></g></g></g></svg>