<svg version="1.1" xmlns="http://www.w3.org/2000/svg" xmlns:xlink="http://www.w3.org/1999/xlink" width="512px" height="512px" viewBox="0,0,256,256"><g fill="#ffffff" fill-rule="nonzero" stroke="none" stroke-width="1" stroke-linecap="butt" stroke-linejoin="miter" stroke-miterlimit="10" stroke-dasharray="" stroke-dashoffset="0" font-family="none" font-weight="none" font-size="none" text-anchor="none" style="mix-blend-mode: normal"><g transform="translate(-0.00014,0.00001) scale(0.5,0.5)"><g><path d="M430.337,231.065h-348.663c-29.701,0 -53.858,24.16 -53.858,53.862v49.884v15.976l15.806,2.262c9.135,1.31 16.03,9.258 16.03,18.483c0,9.225 -6.891,17.173 -16.022,18.482l-15.814,2.262v15.978v49.892c0,29.693 24.157,53.854 53.858,53.854h348.663c29.701,0 53.862,-24.161 53.862,-53.854v-49.558v-17.588l-17.571,-0.822c-9.982,-0.463 -17.808,-8.655 -17.808,-18.645c0,-9.982 7.826,-18.174 17.815,-18.646l17.564,-0.83v-17.58v-49.55c0,-29.702 -24.161,-53.862 -53.862,-53.862zM465.765,334.477c-19.686,0.936 -35.371,17.14 -35.371,37.056c0,19.923 15.685,36.135 35.371,37.055v49.558c0,19.565 -15.864,35.428 -35.428,35.428h-348.663c-19.569,0 -35.432,-15.863 -35.432,-35.428v-49.892c17.991,-2.579 31.836,-18.011 31.836,-36.722c0,-18.703 -13.846,-34.135 -31.836,-36.721v-49.884c0,-19.573 15.863,-35.436 35.432,-35.436h348.663c19.564,0 35.428,15.863 35.428,35.436z"></path><rect x="133.621" y="439.419" width="12.19" height="31.8"></rect><rect x="133.621" y="383.564" width="12.19" height="31.792"></rect><rect x="133.621" y="327.7" width="12.19" height="31.8"></rect><rect x="133.621" y="271.846" width="12.19" height="31.799"></rect><path d="M111.245,180.758l-10.653,5.922l15.461,27.781l10.649,-5.922z"></path><path d="M497.524,179.025l-24.095,-43.311l-8.558,-15.36l-15.749,7.826c-8.948,4.442 -19.768,1.09 -24.617,-7.639c-4.865,-8.721 -2.001,-19.687 6.492,-24.95l14.952,-9.266l-8.558,-15.368l-24.088,-43.294c-14.44,-25.949 -47.297,-35.321 -73.256,-20.873l-304.673,169.509c-25.955,14.44 -35.318,47.305 -20.878,73.256l0.875,1.578c3.27,-6.394 7.43,-12.243 12.324,-17.409c-4.803,-15.643 1.762,-33.044 16.636,-41.326l304.681,-169.51c17.1,-9.518 38.674,-3.368 48.192,13.732l24.088,43.302c-16.751,10.38 -22.575,32.182 -12.895,49.582c9.681,17.401 31.271,23.942 48.925,15.172l24.095,43.312c7.273,13.056 5.337,28.692 -3.571,39.601c4.776,3.961 8.989,8.558 12.65,13.569c14.904,-16.634 18.483,-41.543 7.028,-62.133z"></path></g></g></g></svg>