<svg version="1.1" xmlns="http://www.w3.org/2000/svg" xmlns:xlink="http://www.w3.org/1999/xlink" width="800px" height="800px" viewBox="0,0,256,256"><g fill="#ffffff" fill-rule="nonzero" stroke="none" stroke-width="1" stroke-linecap="butt" stroke-linejoin="miter" stroke-miterlimit="10" stroke-dasharray="" stroke-dashoffset="0" font-family="none" font-weight="none" font-size="none" text-anchor="none" style="mix-blend-mode: normal"><g transform="translate(-0.00085,0.03679) scale(10.66667,10.66667)"><path d="M9,24h-8c-0.55228,0 -1,-0.44772 -1,-1c0,-0.55228 0.44772,-1 1,-1h8c0.55228,0 1,0.44772 1,1c0,0.55228 -0.44772,1 -1,1zM7,20h-6c-0.55228,0 -1,-0.44772 -1,-1c0,-0.55228 0.44772,-1 1,-1h6c0.55228,0 1,0.44772 1,1c0,0.55228 -0.44772,1 -1,1zM5,16h-4c-0.55228,0 -1,-0.44772 -1,-1c0,-0.55228 0.44772,-1 1,-1h4c0.55228,0 1,0.44772 1,1c0,0.55228 -0.44772,1 -1,1zM13,23.955c-0.55228,0.02458 -1.01992,-0.40322 -1.0445,-0.9555c-0.02458,-0.55228 0.40322,-1.01992 0.9555,-1.0445c5.26536,-0.48177 9.24575,-4.97915 9.08415,-10.26404c-0.1616,-5.28488 -4.40934,-9.53066 -9.69429,-9.68983c-5.28496,-0.15917 -9.7805,3.82329 -10.25986,9.08887c-0.04971,0.55008 -0.53592,0.95571 -1.086,0.906c-0.55008,-0.04971 -0.95571,-0.53592 -0.906,-1.086c0.57938,-6.39167 6.08532,-11.19606 12.49655,-10.90429c6.41124,0.29177 11.45803,5.57641 11.45445,11.99429c0.03178,6.21745 -4.71539,11.41758 -10.91,11.951c-0.03,0.003 -0.061,0.004 -0.09,0.004zM12,6c-0.55228,0 -1,0.44772 -1,1v5c0.00006,0.26519 0.10545,0.51951 0.293,0.707l3,3c0.39238,0.37897 1.01608,0.37355 1.40182,-0.01218c0.38573,-0.38573 0.39115,-1.00944 0.01218,-1.40182l-2.707,-2.707v-4.586c0,-0.55228 -0.44772,-1 -1,-1z"></path></g></g></svg>