<svg version="1.1" xmlns="http://www.w3.org/2000/svg" xmlns:xlink="http://www.w3.org/1999/xlink" width="800px" height="800px" viewBox="0,0,256,256"><g fill="#ffffff" fill-rule="nonzero" stroke="none" stroke-width="1" stroke-linecap="butt" stroke-linejoin="miter" stroke-miterlimit="10" stroke-dasharray="" stroke-dashoffset="0" font-family="none" font-weight="none" font-size="none" text-anchor="none" style="mix-blend-mode: normal"><g transform="translate(0,0.02571) scale(5.12,5.12)"><path d="M15.84375,0c-0.32422,0.05469 -0.60156,0.26953 -0.73828,0.57031c-0.13672,0.29688 -0.11719,0.64844 0.05078,0.92969l2.09375,3.5h-5.25c-3.84375,0 -7,3.15625 -7,7v4h-1c-0.52344,0 -1.05859,0.18359 -1.4375,0.5625c-0.37891,0.37891 -0.5625,0.91406 -0.5625,1.4375v6c0,0.52344 0.18359,1.05859 0.5625,1.4375c0.37891,0.37891 0.91406,0.5625 1.4375,0.5625h1v17c0,0.87891 0.39063,1.66797 1,2.21875v1.78125c0,1.64453 1.35547,3 3,3h4c1.64453,0 3,-1.35547 3,-3v-1h18v1c0,1.64453 1.35547,3 3,3h4c1.64453,0 3,-1.35547 3,-3v-1.78125c0.60938,-0.55078 1,-1.33984 1,-2.21875v-17h1c0.52344,0 1.05859,-0.18359 1.4375,-0.5625c0.37891,-0.37891 0.5625,-0.91406 0.5625,-1.4375v-6c0,-0.52344 -0.18359,-1.05859 -0.5625,-1.4375c-0.37891,-0.37891 -0.91406,-0.5625 -1.4375,-0.5625h-1v-4c0,-3.84375 -3.15625,-7 -7,-7h-5.25l2.09375,-3.5c0.19531,-0.33203 0.18359,-0.74609 -0.02734,-1.0625c-0.21484,-0.32031 -0.59375,-0.49219 -0.97266,-0.4375c-0.29297,0.05469 -0.54297,0.23828 -0.6875,0.5l-2.6875,4.5h-10.9375l-2.6875,-4.5c-0.19922,-0.35547 -0.59766,-0.55078 -1,-0.5zM12,7h6.5625c0.32422,0.20313 0.73828,0.20313 1.0625,0h10.71875c0.33984,0.23047 0.78516,0.23047 1.125,0h6.53125c2.75391,0 5,2.24609 5,5v31c0,0.55469 -0.44531,1 -1,1h-34c-0.55469,0 -1,-0.44531 -1,-1v-31c0,-2.75391 2.24609,-5 5,-5zM13,9c-2.21094,0 -4,1.78906 -4,4v14c0,2.21094 1.78906,4 4,4h24c2.21094,0 4,-1.78906 4,-4v-14c0,-2.21094 -1.78906,-4 -4,-4zM13,11h24c1.19141,0 2,0.80859 2,2v14c0,1.19141 -0.80859,2 -2,2h-24c-1.19141,0 -2,-0.80859 -2,-2v-14c0,-1.19141 0.80859,-2 2,-2zM4,18h1v6h-1zM45,18h1v6h-1zM13,34c-2.19922,0 -4,1.80078 -4,4c0,2.19922 1.80078,4 4,4c2.19922,0 4,-1.80078 4,-4c0,-2.19922 -1.80078,-4 -4,-4zM37,34c-2.19922,0 -4,1.80078 -4,4c0,2.19922 1.80078,4 4,4c2.19922,0 4,-1.80078 4,-4c0,-2.19922 -1.80078,-4 -4,-4zM13,36c1.11719,0 2,0.88281 2,2c0,1.11719 -0.88281,2 -2,2c-1.11719,0 -2,-0.88281 -2,-2c0,-1.11719 0.88281,-2 2,-2zM37,36c1.11719,0 2,0.88281 2,2c0,1.11719 -0.88281,2 -2,2c-1.11719,0 -2,-0.88281 -2,-2c0,-1.11719 0.88281,-2 2,-2zM8,46h6v1c0,0.55469 -0.44531,1 -1,1h-4c-0.55469,0 -1,-0.44531 -1,-1zM36,46h6v1c0,0.55469 -0.44531,1 -1,1h-4c-0.55469,0 -1,-0.44531 -1,-1z"></path></g></g></svg>