<svg version="1.1" xmlns="http://www.w3.org/2000/svg" xmlns:xlink="http://www.w3.org/1999/xlink" width="800px" height="800px" viewBox="0,0,256,256"><g fill="#ffffff" fill-rule="nonzero" stroke="none" stroke-width="1" stroke-linecap="butt" stroke-linejoin="miter" stroke-miterlimit="10" stroke-dasharray="" stroke-dashoffset="0" font-family="none" font-weight="none" font-size="none" text-anchor="none" style="mix-blend-mode: normal"><g transform="translate(-0.00006,0) scale(0.52666,0.52666)"><g><path d="M318.341,142.398c1.576,1.583 3.717,2.466 5.938,2.466c2.221,0 4.361,-0.883 5.938,-2.466l128.052,-128.053c2.409,-2.409 3.117,-6.023 1.825,-9.155c-1.305,-3.143 -4.361,-5.19 -7.762,-5.19h-256.107c-3.402,0 -6.456,2.047 -7.764,5.189c-1.29,3.133 -0.582,6.746 1.827,9.155z"></path><path d="M481.716,30.155c-1.938,-0.803 -4.173,-0.363 -5.653,1.125l-132.682,132.684c-10.551,10.55 -27.652,10.55 -38.203,0l-132.7,-132.675c-1.479,-1.488 -3.715,-1.929 -5.653,-1.126c-1.937,0.804 -3.195,2.693 -3.195,4.788v51.625c36.233,9.952 58.279,36.879 65.46,80.883c15.871,11.779 23.699,34.014 18.502,57.431h215.905c11.826,0 21.416,-9.591 21.416,-21.417v-168.522c0,-2.103 -1.26,-3.993 -3.197,-4.796z"></path><path d="M244.363,388.082c-4.598,-23.069 -22.645,-41.093 -45.713,-45.65l-15.7,-3.095c-9.021,-1.787 -16.093,-8.795 -17.966,-17.802l-2.993,-14.416c-0.96,-4.614 0.726,-9.394 4.362,-12.401c14.157,-11.73 27.146,-28.997 34.644,-49.382c10.425,-1.874 19.919,-11.889 22.991,-25.676c3.794,-17.084 -3.733,-33.288 -16.803,-36.193c-0.142,-0.024 -0.283,-0.008 -0.458,-0.024c-3.936,-44.366 -21.021,-77.214 -77.852,-77.214c-55.869,0 -73.601,32.84 -77.773,77.191c-0.189,0.039 -0.379,0.022 -0.52,0.047c-13.07,2.905 -20.597,19.109 -16.802,36.193c3.038,13.787 12.55,23.802 22.975,25.676c7.512,20.393 20.486,37.651 34.643,49.39c3.622,3 5.307,7.779 4.346,12.386l-2.975,14.407c-1.859,9.016 -8.945,16.031 -17.969,17.818l-15.683,3.095c-23.069,4.558 -41.116,22.581 -45.714,45.65l-11.589,58.248c-1.953,9.77 0.583,19.896 6.897,27.588c6.315,7.699 15.763,12.164 25.714,12.164h188.916c9.951,0 19.399,-4.465 25.714,-12.164c6.314,-7.691 8.851,-17.818 6.898,-27.588z"></path></g></g></g></svg>