<svg version="1.1" xmlns="http://www.w3.org/2000/svg" xmlns:xlink="http://www.w3.org/1999/xlink" width="800px" height="800px" viewBox="0,0,256,256"><g fill="none" fill-rule="none" stroke="none" stroke-width="1" stroke-linecap="butt" stroke-linejoin="miter" stroke-miterlimit="10" stroke-dasharray="" stroke-dashoffset="0" font-family="none" font-weight="none" font-size="none" text-anchor="none" style="mix-blend-mode: normal"><g transform="scale(10.66667,10.66667)"><g id="页面-1"><g transform="translate(-672,0)" id="Design"><g transform="translate(672,0)" id="vector_bezier_2_line"><path d="M24,0v24h-24v-24zM12.59349,23.25784l-0.01155,0.00167l-0.07106,0.03553l-0.019,0.0037v0l-0.01516,-0.0037l-0.07106,-0.03553c-0.00983,-0.00315 -0.01861,-0.00049 -0.02351,0.00539l-0.00411,0.01092l-0.01709,0.42728l0.00495,0.02039l0.01101,0.01221l0.10357,0.07398l0.01487,0.00392v0l0.01177,-0.00392l0.10358,-0.07398l0.0126,-0.01604v0l0.00336,-0.01656l-0.01709,-0.42728c-0.00199,-0.01013 -0.00855,-0.01653 -0.01607,-0.01799zM12.85839,23.14529l-0.01384,0.00202l-0.1847,0.09235l-0.00996,0.01025v0l-0.00269,0.01121l0.0179,0.42953l0.00484,0.01278v0l0.00845,0.00708l0.20095,0.09275c0.01209,0.00366 0.02289,-0.00025 0.02849,-0.00801l0.00399,-0.01406l-0.03415,-0.61463c-0.00239,-0.01194 -0.01027,-0.01953 -0.01929,-0.02125zM12.14305,23.14731c-0.00983,-0.00491 -0.02087,-0.00205 -0.02741,0.00529l-0.00572,0.01394l-0.03415,0.61463c-0.00064,0.0115 0.00704,0.0207 0.01688,0.0234l0.01561,-0.00133l0.20095,-0.09275l0.00944,-0.00806v0l0.00385,-0.0118l0.0179,-0.42953l-0.00316,-0.01259v0l-0.00949,-0.00886z" id="MingCute" fill="none" fill-rule="nonzero"></path><path d="M7,2c1.10457,0 2,0.89543 2,2h5.2676c0.3458,-0.5978 0.9921,-1 1.7324,-1c1.1046,0 2,0.89543 2,2c0,1.10457 -0.8954,2 -2,2c-0.7403,0 -1.3866,-0.4022 -1.7324,-1h-3.3686c1.2965,1.27052 2.101,3.04131 2.101,5v2c0,1.7215 0.87,3.2397 2.1942,4.1392c0.3218,-0.6737 1.0094,-1.1392 1.8058,-1.1392h2c1.1046,0 2,0.8954 2,2v2c0,1.1046 -0.8954,2 -2,2h-2c-1.1046,0 -2,-0.8954 -2,-2h-5.26756c-0.34581,0.5978 -0.99216,1 -1.73244,1c-1.10457,0 -2,-0.8954 -2,-2c0,-1.1046 0.89543,-2 2,-2c0.74028,0 1.38663,0.4022 1.73244,1h3.36856c-1.2965,-1.2705 -2.101,-3.0413 -2.101,-5v-2c0,-1.72146 -0.87,-3.23974 -2.19423,-4.13915c-0.32174,0.6737 -1.0094,1.13915 -1.80577,1.13915h-2c-1.10457,0 -2,-0.89543 -2,-2v-2c0,-1.10457 0.89543,-2 2,-2zM19,18h-2v2h2zM7,4h-2v2h2z" id="形状结合" fill="#ffffff" fill-rule="evenodd"></path></g></g></g></g></g></svg>