<svg version="1.1" xmlns="http://www.w3.org/2000/svg" xmlns:xlink="http://www.w3.org/1999/xlink" width="800px" height="800px" viewBox="0,0,256,256"><g fill="#ffffff" fill-rule="evenodd" stroke="none" stroke-width="1" stroke-linecap="butt" stroke-linejoin="miter" stroke-miterlimit="10" stroke-dasharray="" stroke-dashoffset="0" font-family="none" font-weight="none" font-size="none" text-anchor="none" style="mix-blend-mode: normal"><g transform="translate(-1.92593,-1.92607) scale(10.66667,10.66667)"><path d="M3.5362,5.29854c0.3248,-0.06133 0.65891,0.04181 0.89264,0.27553l2.47123,2.47123c0.31711,0.31711 0.83124,0.31711 1.14835,0c0.31711,-0.3171 0.31711,-0.83124 0,-1.14835l-2.47001,-2.47001c-0.23384,-0.23384 -0.33695,-0.56817 -0.27544,-0.89311c0.06152,-0.32493 0.27969,-0.59844 0.58283,-0.73063c2.18116,-0.95114 4.8176,-0.53622 6.6045,1.25064c1.4138,1.41381 1.9685,3.36027 1.6678,5.19035l6.8785,6.87851c1.357,1.3569 1.357,3.557 0,4.914c-1.357,1.3569 -3.557,1.3569 -4.914,0l-6.87855,-6.8786c-1.83004,0.3007 -3.77643,-0.2541 -5.19021,-1.6678c-1.78828,-1.7883 -2.20245,-4.42754 -1.24836,-6.60972c0.13241,-0.30286 0.40592,-0.52072 0.73072,-0.58204zM4.30644,8.2801c0.00214,1.01273 0.38988,2.0242 1.16161,2.7959c1.03883,1.0389 2.51122,1.3821 3.8389,1.0249c0.34535,-0.0929 0.71405,0.0057 0.96695,0.2586l7.2629,7.263c0.5759,0.5759 1.5097,0.5759 2.0856,0c0.5759,-0.5759 0.5759,-1.5097 0,-2.0856l-7.2629,-7.2629c-0.2529,-0.2529 -0.3515,-0.62159 -0.2586,-0.96695c0.3573,-1.32771 0.014,-2.80014 -1.0249,-3.839c-0.7701,-0.77014 -1.77901,-1.15787 -2.78965,-1.1616l1.17629,1.17629c1.09816,1.09815 1.09816,2.87862 0,3.97678c-1.09816,1.09818 -2.87863,1.09818 -3.97678,0z"></path></g></g></svg>